<mxfile host="app.diagrams.net" modified="2021-08-26T08:22:47.257Z" agent="5.0 (Windows NT 10.0; WOW64) AppleWebKit/537.36 (KHTML, like Gecko) Chrome/91.0.4472.114 Safari/537.36" etag="ijmp1sM7D3rJw9CwlD9X" version="14.9.9" type="github">
  <diagram id="g12YDvsNKB02owdu8L63" name="Page-1">
    <mxGraphModel dx="898" dy="490" grid="0" gridSize="10" guides="1" tooltips="1" connect="1" arrows="1" fold="1" page="1" pageScale="1" pageWidth="433" pageHeight="470" math="0" shadow="0">
      <root>
        <mxCell id="0" />
        <mxCell id="1" parent="0" />
        <mxCell id="vrEu3piPWkka9Syn_rgN-2" value="" style="shape=image;verticalLabelPosition=bottom;labelBackgroundColor=#ffffff;verticalAlign=top;aspect=fixed;imageAspect=0;image=data:image/png,iVBORw0KGgoAAAANSUhEUgAAAa8AAAG/CAYAAADvvViaAAAgAElEQVR4Ae2dPY7kttOH9z57ib7EBu1oIl/A6LwvYKBTBwYmcmD0HTpwMgdwssl/ggGM9xZ8UZKoKlKkpP6SqOazwKBJil96qlS/IcXp/eb4BwEIQAACENgYgW8bmy/ThQAEIAABCDjECyeAAAQgAIHNEUC8NmcyJgwBCEAAAogXPgABCEAAApsjgHhtzmRMGAIQgAAEEC98AAIQgAAENkcA8dqcyZgwBCAAAQggXvgABCAAAQhsjgDitTmTMWEIQAACEEC88AEIQAACENgcAcRrcyZjwhCAAAQggHjhAxCAAAQgsDkCiNfmTMaEIQABCEAA8cIHIAABCEBgcwQQr82ZjAlDAAIQgADihQ9AAAIQgMDmCCBemzMZE4YABCAAAcQLH4AABCAAgc0RQLw2ZzImDAEIQAACiBc+AAEIQAACmyOAeG3OZEwYAhCAAAQQL3wAAlcR+Ncdv39z374f3b9XtaMyBCDwSAKI1yNp0leCwN/ux7dv7lv08+PvRNVnFv39YzAHmdP347USdId4PWwOV4DKjPnt2w+3tAmumDVVITBJAPGaRESFWwn8e/zeCMZAIHxAXVLBmjG/u0Crlp7HGnPo7jFG/feP9heKgW1uNTbtILAwAcRrYeDVDPfv0X0fW9lkgurT+KSEwznXBvGFViFrzGGEs//lIha2p9mAjiHwQAKI1wNh0pUSmBaF4fZbE0ybd0nhVmNyddAF5X47cioCZ4SjDeDhisyvSnzf4fiZecs2XCfY2e3IK+bgJu6vnffcMb+5NJ7hvTQWNPfhGSTbT8xRvYEUBB5PAPF6PFN6dJmgGJGJBc6vBOz7GF8WBM8uaPZlU6s8GTcjHPEcJB+IVTxW4t78HL99C0Uwut3Zc/DCNXZ/142ZE6/EyrO733EGnmfYr7Dr5zy4eQog8FgCiNdjedJbQ6BbOU1Eslg42oAcC0DblwbTThijvtu2I9t/CfHyAqB9p8wX38tQmOf14wN+eH/DtvPub9guNXc/Zl5U2n78nNJjS8+NrfoTlvl6mVlQDIGHE0C8Ho6UDp2LA36aSVq8YgGKAmW3yoq0K7uq6UfuVhR+G6z99EG7r5VIRONnV14z+pozh5n3F4pOYtq+qBtzwKu7HvQzsoKdW88PyycEnk0A8Xo24Sr7jwN+GkL427xzbYCcJ16hCPmj+CMCklh5pWfVzT062v+tj/7d9X4V4uc9MrYfaM4cOgGZur9ATHz/qc8J8Qp+gcgJp/Rr5z5WLzUHyiDwBAKI1xOg0mXiXcoAynB1do149Voy6DdTYINvpopLrKr6sn7AZcSrHy4z18eIV/RLBiuvDG2KSySAeJVolVeY08Rv/KngO0u8ui3J8fdUCYBzxCsZvKMAnxC41L0kZhCuXpIVpDB+x5eueN2Y6XdebR/2WnyvOna4Sh7+4qE1SUFgGQKI1zKcqxyl3ZKywbHF4INmLEBt+cS2ofPbdFG/Ik5mK28AfI54Jd7V+XtYbNtw5v3dK17jNgjZ+rp2NZgqE1bepqnrA5tQAIE7CCBed8Cj6QwC3QosfIcTC1TbTxvw4muZ1UDc75hwSfezxKtRjuaPq/18JRg3AtZH7m4+Zrx23g965+WRTtzfdWP6d4Lm08zfD9l/xmNn/gTAC5RnpQKf+QWjH4AEBO4ngHjdz5AeIAABCEBgYQKI18LAGQ4CEIAABO4ngHjdz5AeIAABCEBgYQKI18LAGQ4CEIAABO4ngHjdz5AeIAABCEBgYQKI18LAGQ4CEIAABO4ngHjdz5AeIAABCEBgYQKI18LAGQ4CEIAABO4ngHjdz5AeIAABCEBgYQKI18LAGQ4CEIAABO4ngHjdz5AeIAABCEBgYQKI18LAGQ4CEIAABO4ngHjdz5AeIAABCEBgYQKI18LAGQ4CEIAABO4nUJ14/d///d/91F6oB3ioMWGhLCQFD+UBC2VRim9UJ14/f/4MrVB5Dh7qALBQFpKCh/KAhbIoxTcQr9Am1eV4KNXksFAWkoKH8oCFsijFNxCv0CbV5Xgo1eSwUBaSgofygIWyKMU3EK/QJtXleCjV5LBQFpKCh/KAhbIoxTcQr9Am1eV4KNXksFAWkoKH8oCFsijFNxCv0CbV5Xgo1eSwUBaSgofygIWyKMU3EK/QJtXleCjV5LBQFpKCh/KAhbIoxTcQr9Am1eV4KNXksFAWkoKH8oCFsijFNxCv0CbV5Xgo1eSwUBaSgofygIWyKMU36hSvP/5wjh8Y4AP4gPWBMD4HOS9en+9vbrfbtT/HS1BHMsH1rt7b+2e2XNpcjl1/Uv/t3X12vQZ9JcYaDL5ggeex4JCDoRAv67ykCWb4QL0+MAiPWtAE689397Y7ulayLu64e3PvXmm0qkl9uve3VB1TLn32giXlO9fo1NVjmWEXSCJeC0COh2igE6DqDVDYHtvnfCAOFiYvcUNWQrKK8v/ivC/vPwNh6ktleaaCZdNORS3uO86b3lZJIl4rYEe82DJlyxgfSPrASDy6RbxkOzC12xeXizD5rUhfPxarOD8y1UUuIV6LYA4HQbwIXMnAlfttnPJ6VmphqAhy14uXbCv6LUbb1bC8eed1vLTvvrotxFis4rztcY004rUCdcQL8UK88IGkD4zEo2vFKyc2cXkunysfmeKilxCvRXG3gyFeBK5k4GKFVc8KK2frkXjUxI3ZhyhyhzmG5SJSO79X2J08bN6rzR5rZNJPvIR4PRFurmvEC/FCvPCBpA/kgob5mzd7rL0/vNEIjTlVeDkGR977bpPl7QlD/87LHpVPjtV3tm4C8VqBP+JF4EoGrtxv45TXsyIbiUclBOuR6S1+qQQeVf6d15///Of4gQE+gA+kfCClBCUE69S81iorgccTxevDnfZ7t29+Du78tRbmcFyBnnJYyghk+AA+ID6Q+hcH6+Zd1Q3ftCF92+3AeduE8q7MfwuH2Z5MTXShspjHQsMGwzxJvL7c+bB3p49urK+zO/SZYPzFM4gXAQqRwgfGfCAVlIJgffVhCv3j4+APlJs/StZv1Dj6P4AO+jffupGa2EplAY+V5vAc8fo4uf3h7IaLLbsak1WZX5FJ+cl5rXNO8x8nv3qTz66OiGG/qtu7wxXLOsSLwDUWuLiGf6RisQ3WVx9jFzHyXwFl0+YbNcIxzanEoH5Ya82c5bHWPJ4iXl/nwzxBERFqRE7FqgXR5UUEByu2uK6s8rwITmNEvAhOCBQ+MOYDqShig/W14iXbhOY0fPAlvba8H9cKlpxQ7LcMZesw9YfPfcvFEpbHYoNGAy0vXiJIZtXUrtBiQfJ5+bQrNOdctOryfQ00LrpRn0W8CFxjgYtr+IePFfbTBuvrxEtWUaHgNO+8om/U0LHMFqMUingZhZO2/RF9bbR4yvJYfPBuwKeIl0uumLzwmO3BqZVXT6V9h9ZsG/Zt+otXJRAvghMChQ+M+UAqoNhgfY14TdWNrw/EKRKvuH5qrkuUWR5LjJca4zni1byzMgc2JC9Lo0h4ZHuxXXmFW39NuX+/ZWYt779OH7Iam79NaJo3ScSLwDUWuLiGf8QxQ/JBsJZtvX41Zd5PDRoOr4n4pFdS7cGMwaoqGKucwxsBj8F9L1PwJPHyqyx/2ELFphWmrvx0cid/sMNuJ57O7nw4ubOIm91i9HuDg61Ds5qb4IZ4EZwQKHxgzAdSISQO1s3WX/cuqhecRmjMUfZrvlFj8G5LtwcbwfPvvcwWYmqeS5XFPJYa147zPPGyoxSURrwIXGOBi2v4RypclRCsU/Naq6wEHlWKl/v5q+MHBvgAPvBwH1hLTRYeF/FaGLgM10BHvBBvfAAfeIYPTMS0OVuAdkvynm/gmDPWxHSzlxGvLJrnXUC8+G374b9tPyMI0uc2xXUsdAWHL4aHOZqmUsf/QfM938AxZ6yxuU5cQ7wmAD3jMuKFeCFe+MDTfGAkaMlKqD/c4Vzzx8o23zQdiJc5ANL3bYQvqN9XGPQdj601b0shXrdxu6sV4kXgelrgYrW0zdXSI+02Ep1iAYnzvqmU+2/VSB4utII1OKXY/kF03Hec92Pd+ol43UrujnaIF+KFeOEDT/OBkdgUC0ic902bd153fgNH3Hec92Pd+ol43UrujnaIF4HraYHrkb/B09c2V3EjsSkWkDgvTeOyOD/3GzjidnF+ZJqzLiFeszA9thLihXghXvjA03xgLFzNOEQhIvOQb+CYMdbYVKeuIV5ThJ5wHfEicD0tcLFa2uZq6ZF2m4hZ9hh8f1ijERp/MKP9Cij/zqs/Kj94tzX9DRzJsSbmN/cy4jWX1APrIV6IF+KFDzzNBx4Yq0ruCvFawTolQF/htrNDwkPRwEJZSAoeygMWyqIU36jz66FCO1Sd46FU88NCWUgKHsoDFsqiFN9AvEKbVJfjoVSTw0JZSAoeygMWyqIU30C8QptUl+OhVJPDQllICh7KAxbKohTfQLxCm1SX46FUk8NCWUgKHsoDFsqiFN9AvEKbVJfjoVSTw0JZSAoeygMWyqIU30C8QptUl+OhVJPDQllICh7KAxbKohTfQLxCm1SX46FUk8NCWUgKHsoDFsqiFN9AvEKbVJfjoVSTw0JZSAoeygMWyqIU30C8QptUl+OhVJPDQllICh7KAxbKohTfQLxCm1SX46FUk8NCWUgKHsoDFsqiFN9AvEKbVJfjoVSTw0JZSAoeygMWyqIU30C8QptUl+OhVJPDQllICh7KAxbKohTfQLxCm1SX46FUk8NCWUgKHsoDFsqiFN9AvEKbVJfjoVSTw0JZSAoeygMWyqIU30C8QptUl+OhVJPDQllICh7KAxbKohTfQLxCm1SX46FUk8NCWUgKHsoDFsqiFN9AvEKbVJfjoVSTw0JZSAoeygMWyqIU30C8QptUl+OhVJPDQllICh7KAxbKohTfqFO8/vjDOX5ggA/gA6/oA6HOJHOf729ut9u1P8dLss7l2F3f7dzb+2dfJ11+cUffn3y+vTtpEYzTXbd99Z3ekEC8XtF5uSeCMj5Qrw9MCcHnu3vbHV0rWSI6b85oU9v6cuwFyDlT5/PdHd8/21V53E8nWPnhP937W2KsfIPRK4gXD3m9Dzm2x/av6AOjIb9dDdnVj6yObF6ax2Wy2rILtHYb1YiaCNyUeInYTdWZmLu9jHi9ovNyTwRlfKBeH7ARPpGOhSnOSxMp2xm1EvGyAteIVyBG4bahreunEAugL7/1E/HiIa/3Icf22P4VfWBCDWKxivNtc9ni03de8n7MaJn7+fMysgVoV2R+MlLmtyp92X2fiNcrOi/3RFDGB+r1gQlNiMUqzqeaX47hu6q/fgtXYnGbeJU1Z4y4j6k84sVDXu9Dju2x/Sv6wFTUjw9apA5s2D6CwxvtiuyX39MnFJtmTf9W7FIrMTvAbWnE6xWdl3siKOMD9frADC2QlZE/Kt+/n7Ki06R9HbPdJ0Jmj8R3x+hlZWXL7RajC8RvxuRmVkG8eMjrfcixPbZ/RR+YGfzvqVbCH20jXq/ovNwTQRkfqNcH7lGlmW03JF4f7rTfu33/c3Dnr5l3eWW1j9PeHZ7VefeVN3/+85/jBwb4AD6wRR+YCqnBFl6wf6ctk9uG/oi83xY0beM+VbzsEXn7nkvHelZq5spLxOvkPh4+iy93PjxPCFPTFehbdFjmTKDFB/AB8YHRf3MOYwTvoMxhilzbRPnvl58idc1xeqNxo1N79MU7xevDnQ5ndz75VdnJfXyd3aFbofUrKFMmq7dTo4IiXL7d3u3bQvd1PujKK9kuHtP3Nw8N4kUAQATwgS37wFiki4+kx3lpG5f5Y+1xuc/7Tz+u5JvThiJqD/zGDN//3M8rxMsIzeHs2l3Ddjux0x0nW357v0JrhEdWa1LHrq5sfrjyUvGy9eR2fF4+zdaijNPPZ/q2ES8C15YDF3PHf8eiXEpo+tOEXUOpk/r2jFzbVHkjXoOTh+ZU4tgkH3TtCvFKbRu2qyD/+kuFR2YnInNyHx+nflXl5ywip6svK2xOV17Zdl2/vjM/Tp8fTyBePPwIAD6wZR8Yi3ApoYnFy2/3xUfbc21T5b14mT1DWcENxxqb7X3XEC8Ob/AOEB/ABzbkA2MhPyU0U4Livz0j1zZVnhKvuN7YPB9x7fni1W/3ddPttxMlf8W2Yd+OldeWf2tk7qx68IH7fGA08CcOVwz+uxPbgT28kWubKG8ObATlyx/euEK8zDuv/tDFjG1DASVbgJlj9rLV2FxLHdhItkO8ePjve/jhB78t+4DVnlQ6eQy+EZruKHuTTnx7hnMu2TZRLq9f5J+stvrtR7OFmJrXo8tmitejh12vP955Ebi2HLiYO/67XvTUkb14acnyKcRrQ3vdBC4CFz6ADywvE8MREa8hk6eXNNB//uocPzDAB/CBWnxgRmSdswWY21Zsuu+2I+0BkXyf3f8XdsffiVW58kK4EG98AB+oygemxCs4fGG+dcO2M4c7fv78yx2j/0qlObX4ftTj8tk+u/4v9/2RM+JVy29e3CerDHygXh+wIpRIx8fc47w0sWWygyWrsP6MhgibZC4qXrZ+3L6ZgogbK6+ENTJFbBvyG3dVv3EjWPUKlrV9Jh764kmh8ScLO7Xy4tVuEcoWYPftGoiXR/r4T8QL8UK88IHqfGAilM4Rr1nfzIF4TZC+4zLiReCqLnDZ38BJ17kSm4iZ88RLO2lXXvJ3Y93BC//fqPjP4yXYZpSW8RiObUMFOieFeCFeiBc+UJ0PTAXH7OGKdMOff/3mdqn3VWbl1YjTzn9Zb+IQCOKVhpsrRbwIXNUFLlZbda62rN1zAdGUJ4/BN6KW+maO39zFtO2TVrwS38zR1hMh89/w0X72Bz/6jqYTnDa0BibNQ44P4AOv6APTWnBVjWYRcFWLx1euU7wez3GzPZbghKXAg0VoCXgoD1goC0mVwAPxCm1SXa4EJywFOixCS8BDecBCWUiqBB6IV2iT6nIlOGEp0GERWgIeygMWykJSJfBAvEKbVJcrwQlLgQ6L0BLwUB6wUBaSKoEH4hXapLpcCU5YCnRYhJaAh/KAhbKQVAk8EK/QJtXlSnDCUqDDIrQEPJQHLJSFpErggXiFNqkuV4ITlgIdFqEl4KE8YKEsJFUCD8QrtEl1uRKcsBTosAgtAQ/lAQtlIakSeCBeoU2qy5XghKVAh0VoCXgoD1goC0mVwAPxCm1SXa4EJywFOixCS8BDecBCWUiqBB6IV2iT6nIlOGEp0GERWgIeygMWykJSJfBAvEKbVJcrwQlLgQ6L0BLwUB6wUBaSKoEH4hXapLpcCU5YCnRYhJaAh/KAhbKQVAk8EK/QJtXlSnDCUqDDIrQEPJQHLJSFpErggXiFNqkuV4ITlgIdFqEl4KE8YKEsJFUCD8QrtEl1uRKcsBTosAgtAQ/lAQtlIakSeCBeoU2qy5XghKVAh0VoCXgoD1goC0mVwAPxCm1SXa4EJywFOixCS8BDecBCWUiqBB6IV2iT6nIlOGEp0GERWgIeygMWykJSJfCoU7z++MM5fmCAD9TpA2EcHuQ+39/cbrdrf46X5roN1sH1rt7b+6dz7uKOvp18vr07Kc3Xd+5y7MbZ7Vzbx2A6RRZYHmtNEPEigNUZwLB7vXYfi7af7+5td3StZIkYvTnRpXyw/nTvb22dRrw6wcoPYepfjr3AtcLn+8m3LuVKnsdyM0S8CGL1BjFsX6ftR+KrrJLsCsjns8FaxK4XrIs79unMIKa+79vXlFVYt9DzRcV+ZnksOGPEiwBWZwDD7vXafSTAxoLi87lgHQpOuG1oRdAPaetL3zujVnIt1ca3Lekzx2PJOSJeBLF6gxi2r9P2IxHWi5Wv4vPpYC1i5bcYfQv/qVuOvqTdGrT1ZQtR33nJezajZdqswFSax7ITRbwIYHUGMOxer91HYqwXK1/F51PB2l/zdeNPu8qSa9P1eecVMxzLI14EsXqDGLav0/ZjEXH2gY3Uysp03PRjxWiifnB4w/RTaDIl5ktPFfEigNUZwLB7vXafiLKyYvJH5f07qJ+X391bd/KwaZ4QG1lZ+XaDLcBEfdcInB/LbidOTLCAy4jXCkZooBO46g1c2B7b3xB3SgjWN0z7aU1K4MHKi2BGMMMH6vKBG0J6CcH6hmk/rUkJPG4Qrw932u/dvv85uPNXjpGtm6pnr+/d/vSR66gv/zjt3SE/YF8vlxDof/7zHz8wwAcq84FcTLDlwdafOfrng3Vwfca3a/R9d1uEfhsy920cff3CE57HmtO8UbxOblpmvtz5sHe9Hn2d3aHP+FsW8fJ9RfV9lQd/Il4IN7+81OkDk6Ekc1hD2qWDtfm2DPlqqJE/UL4c39z7+9H8Hdd4/cm5rlwhzWPZST1PvD5Obn84u+yirLlPK17OfZ0P3aoqWpHtddXW1Dmd3OF0bsRxeowQKOJVZ+BCsLB7GAmGufgou80ng7WIXS9YI2IkhzVkFXdBvIbUby+5UbzMtmFGoFSIxiZnxWtk5SWrtm6cXryMoI2NEF9DvAhiCFmdPhDHgjhvxUqu2XxKvMK/45Kj8P7koP2mDFmddScJY/FK1o9nVWY+xWPpmd4oXn6rT6crouLfg8nu4HzxUiEM3mXJyq1/r7bvV3G9eGVEU2eUTiFedQYuBAu7pyOCllqxklKbHwZrEavc8Xb9my7bR7jy0nG39qW8MvMhD3s/y6QfJl6D6Yr4DN5xxbXsystck5VW/y7MiRIOV16IFwcOKjtwgADfJ8AmwiSTgdBMiFdcN+6wXZUNv/6p+TswcxDEtwtXcb603M/XFi/XvrdS/fpwJ810VhkRLyNOzaou3jY0168xMSuv+wIAARR+W/WByTgx+8CGrqySfTb92G/X6GoF24amZa6+qVJacsPipVt9srU30CRPullB+bp66MJfdo3ADbcg5brdhtyfTu6EeLHSYqWFD9zhAxp38qnUt2vIN2H8svul+X+9mpaJb8uQlVj22zX8cEa8ZtX37Qr83Kh4FUjyiimx8mLlsNWVA/O+z3evCBODqiUE68GkViwogccN77xWJPaAoRGv+wIAARR+W/WBe8JHCcH6nvk/um0JPKoUL/fzV8cPDPABfOBhPjBDHYKtwsShDenCblvu+r8hC8v1Wzrmldt+ZkxzVhXEaxamx1ZqoCNeiDc+gA880gemwtTIYZC+qdTpBas9qdho3Oe7O75/ttVsPyPlyX76ge5PIF73M7y6B8SL37Yf9tv2I4MffW1bTCciUXy0Ps43zQfilTixKF9DZf9rln5cUz6rn77hTQnE6yZs9zVCvBAvxAsfeLgPTISlWKzivG8u5f7UYnJnMRAm36r5ozSzamv/wHq0H9P0liTidQu1O9sgXgSuhwcuVk3bXjU9wn4TcSkWqzjvmzfvvI6X9t1Xv4Xor9ovAvZl8jksH+/Htr0tjXjdxu2uVogX4oV44QMP94GJqBSLVZyX5nFZnBdBsoc1/JBxedwuzvt293wiXvfQu7Et4kXgenjgesRv7vSx7dXbVDyyBy0y761EZJpvn+/6UlFqD28MhStdnu9napLzryNe81k9rCbihXghXvjAw31gRoRqtvKC/8Cye1fVH8Boxci/q+qPuMs3ephvoJd0I2S58mYbUb/hvu9nxhznVkG85pJ6YD3Ei8D18MDFqmnbq6ZH2O+BMWoLXSFeK1gJ8UK8EC984OE+sEIsW3NIxGsF+iVAX+G2s0PCQ9HAQllICh7KAxbKohTfqPProUI7VJ3joVTzw0JZSAoeygMWyqIU30C8QptUl+OhVJPDQllICh7KAxbKohTfQLxCm1SX46FUk8NCWUgKHsoDFsqiFN9AvEKbVJfjoVSTw0JZSAoeygMWyqIU30C8QptUl+OhVJPDQllICh7KAxbKohTfQLxCm1SX46FUk8NCWUgKHsoDFsqiFN9AvEKbVJfjoVSTw0JZSAoeygMWyqIU30C8QptUl+OhVJPDQllICh7KAxbKohTfQLxCm1SX46FUk8NCWUgKHsoDFsqiFN9AvEKbVJfjoVSTw0JZSAoeygMWyqIU30C8QptUl+OhVJPDQllICh7KAxbKohTfQLxCm1SX46FUk8NCWUgKHsoDFsqiFN9AvEKbVJfjoVSTw0JZSAoeygMWyqIU30C8QptUl+OhVJPDQllICh7KAxbKohTfQLxCm1SX46FUk8NCWUgKHsoDFsqiFN9AvEKbVJfjoVSTw0JZSAoeygMWyqIU30C8QptUl+OhVJPDQllICh7KAxbKohTfQLxCm1SX46FUk8NCWUgKHsoDFsqiFN9AvEKbVJfjoVSTw0JZSAoeygMWyqIU30C8QptUl+OhVJPDQllICh7KAxbKohTfQLxCm1SX46FUk8NCWUgKHsoDFsqiFN9AvEKbVJfjoVSTw0JZSAoeygMWyqIU30C8QptUl+OhVJPDQllICh7KAxbKohTfQLxCm1SX46FUk8NCWUgKHsoDFsqiFN9AvEKbVJfjoVSTw0JZSAoeygMWyqIU30C8QptUl+OhVJPDQllICh7KAxbKohTfQLxCm1SX46FUk8NCWUgKHsoDFsqiFN9AvEKbVJfjoVSTw0JZSAoeygMWyqIU30C8QptUl+OhVJPDQllICh7KAxbKohTfQLxCm1SX46FUk78Oi3/d8fs39+370f2rt3d16nV4XH3rgwawCJGUwAPxCm3y4rm/3Y9v39y30Z8f7u8Xp5C7vdUfyL9/JG3z/XitBN0hXg+bQ45ypjwz7rdvZfjj6r6RwbZWcQk8EK+1rF/CuF3A+FGrWkU2WP2BbOzx3QVa5YP6UkYyc+h5LDGHboz4Nv/+0f6ydb2AR8a9M9uzuLOfV2leAg/E61W86Zb7yASMW7p6hTarP5BGOCzPNoAvtAIxc7A8nj6HEV/89/i9WZHGwmYZPTttWTx7rC30XwIPxGsLnvKsOWYCRhssohWA61bBCtIAACAASURBVLYcowjS1o0C679H9z3amoyape9oRrt+PFM39Vt5E2zlnY+pJ9ulfh7+N3op8+2DBzJqZ9v6yU/OpePbb9P6wX0H8acRDnspZQ87f3sPbbvhtuHkXP2AZg6WR2oObuL+Zo8pY3d9pREN76eZ7gwbNfUm5ulvfezTshirV8u1EnggXrV4W+o+cwGjCwo+qDdNpe737+57dAigFwnff9fnoK0RDl81+JzZrg2IspUUi2vQm9PgrsKqZSpiNmj2D+Qj5tL10QfjFNNwyl0AH95XO+/wPsb5DoP9XG4tj3YOPY9GW4S5zsFya24jcX+zx5QOYl4Rm5iBrz/OId2v9NXbJRonl7UscnVqKi+BB+JVk8fF95oNGF3wM0+4BKLvx6P7EYhGuxrTADJs54dsgk8kfP6ac/Pb+YCoY2ovNjUIdnIxJUpmRdk+kI+YS7qPdu5GAOyE+/mF4jXvfuNVcTe+4T2vH88oFK9h23n3N2wX37DJZ32xrdP25dmkx28R2lOW+Xpm5FnJEoL1rIkuVKkEHojXQsYucpiRgNEGCw20f/9oA0fwW2vT3gcU51zit29/32Hw8aXd5xXtRvsx3SbFqxvHaLJMuj1W/uPv9u+aHjGX5DihMJiparKzR7/N2Gy9Gr5aM0rpPbQXuvxAvGb0NWcOM+9vrq2aOY/4olwP+ppro5F6EcDJbAnBenKSC1YogQfitaDBixtqLGA0D74PdvKbfStkTRDpon+TNgHSi1coDt1dN2P5/iISuWAo1aJ2QRCLurHZe8Vrzj1k59LdTyhC/k8UMgwS92rvJ0x34hS9V/zWT/pe8WrnmA1QM+8vyye8mTY35ouNG5hty7n+MlYvNYeRsiyLkTavfKkEHojXK3vY1L2NBgyzJShBwItUn24DZLB91wWLoKybw2ggu6LdaD/mfu8Vrzn3kJ1Ldz+9lph5jSYjoU7XHQqTXT22bYZ1snONBzFzyAaomfc3e0yZw6gvdvfjgc71l5F68W1P5bMsphq+6PUSeCBeL+pcs25rNGBIPGnfH/zdvO/yfygroia/mftPO1IUZMwl35fvxVwKtu7Ccp2Dbzc3IN4sXmYb8fa5GOGPOxnLG+HIVksG5Jj7k8Wre0+YEng777m2atqM+GLbjz1kEd+vjhr6WWsHXZFqvWtTJQTra+f8zPol8EC8nmnh0vseCRjN1JvrP9yP4HRWGzi+f5e/vdF3Yv5Wh4HGv6+wwcfX1s+57eYGxNvFKz3f/PzS24Cp+s3qwq9g9dY1NUe8zAET37C9129Og/SzxSvNKL6/ubZq7iPji55jLJS+3C/GpI+5ZcLL95dq47nazxKCtZ3P2ukSeCBea3vBmuNnAoZOqfvNNThhqEFCg6W2aFJdv/rOJx3go1b91tFYuzbYTPd3j3jNvYfJucQcxoRLBm3qT9+bf7foOUkgbu63j+TPF68ko+j+JvlYB4hZ+fd5UZ+2id9q9Bxyfz7hBaqv13NSXzZFwRA+U0Kw9nMp4bMEHohXCZ6w4hxKcMIVbz8YGhYBDr5V3uDANwyMQv7HAcQrtEl1OR5KNTkslIWk4KE8YKEsSvENxCu0SXU5Hko1OSyUhaTgoTxgoSxK8Q3EK7RJdTkeSjU5LJSFpOChPGChLErxDcQrtEl1OR5KNTkslIWk4KE8YKEsSvENxCu0SXU5Hko1OSyUhaTgoTxgoSxK8Q3EK7RJdTkeSjU5LJSFpOChPGChLErxDcQrtEl1OR5KNTkslIWk4KE8YKEsSvENxCu0SXU5Hko1OSyUhaTgoTxgoSxK8Q3EK7RJdTkeSjU5LJSFpOChPGChLErxDcQrtEl1OR5KNTkslIWk4KE8YKEsSvENxCu0SXU5Hko1OSyUhaTgoTxgoSxK8Q3EK7RJdTkeSjU5LJSFpOChPGChLErxDcQrtEl1OR5KNTkslIWk4KE8YKEsSvENxCu0SXU5Hko1OSyUhaTgoTxgoSxK8Q3EK7RJdTkeSjU5LJSFpOChPGChLErxDcQrtEl1OR5KNTkslIWk4KE8YKEsSvENxCu0SXU5Hko1OSyUhaTgoTxgoSxK8Q3EK7RJdTkeSjU5LJSFpOChPGChLErxDcQrtEl1OR5KNTkslIWk4KE8YKEsSvENxCu0SXU5Hko1OSyUhaTgoTxgoSxK8Q3EK7RJdTkeSjU5LJSFpOChPGChLErxDcQrtEl1OR5KNTkslIWk4KE8YKEsSvGNOsXrjz+c4wcG+MD2fCCMocnc5/ub2+127c/xMqgTXO/qvb1/NvWCa6btX791/e12ztd17uKOfhz5fHt3bS+DIV+uoAQxR7wIYNsLYNisXptNycDnu3vbHV0rWSIub67TpUzLT/f+1tXJtb0c3e6X3zthsn1e3LEiwbIAES9LY6F0A53gV2/ww/bbtv1EnJCVk66MnIvzg+YiWJ0AxXV9Xj5/+V1XcJfjzrWLMsRrwHPBAlZeBLNtBzPsV5f9JoKjFxxfLc77cv+pQjQUOt9WPne//eWbOGnTCmS4bWhFs6/8oglWXisYlpUX7/t437lhH5iIGV5wfLU478vbTxEfv8WYFy/nPt3vv+g7L3mfZl6HdV3a7cRwlFfMIV4rWBXx2nDgYpVV1yorZe+JmBGLVZy3zeNrY3kbrC/H9Hs0u4qz47xi2vJY6/7YNkw9IJQRJPGBMn1gKlLmDl0M2iVWSiNt+2AthzdShzSatmlRGwz9AgU9jxXvBfEiSJUZpLALdkn5wIxgKSsgf1S+fw8Vi0tGhHJtf+mPxIfbjH6c9FbijMlutAritYLhGuiph4IygiU+UL4PrBAzZMgSgvVKt54ctgQerLwIWOUHLGyEjbwPJEPp8wtLCNbPv8v5I5TA44ni9eFO+73bNz8Hd/6aD+aZNQX6n//8xw8M8IEX9YE58UMOZ/RbfsOjg83fh/XXo2/hSG4tNoPao/P2/VeufM5My6zzwuL15c6HvTt9dOC/zu7QZ9Y1BuKFcPPLy2v7wGSEGTmYkW4rR+V/ab+p4/PdHf1XdgT9yDd1pI7Q58rTI22l9HXF6+Pk9oezGy627GpMVmV+RSblJ+e1zjnNf5z86k0+uzoihv2qbu8OVyzrEK/XDlwIE/adEoCxI/HJtp/v7pf+66FMDREvf/LQpk0Vlyu3dTaYflnx+jof5gmKiFAjcipWrR27vIjgYMUW15VVnhfBaS9AvAhuCNxr+8BUFLhWvGSb8Le/fvbd6rahnjx0cnqxP5Eopx27a7nyvrdtJuoULxEks2pqV2ixIPm8fNoVmnMuWnX5vgYal/EJxOu1AxfChH0zj35ffJ14yfuqo/vrp4qX6ci9+S/+FZEy785E4Jpj+rnyvpNtJl5WvFxyxeSFx2wPTq28eru279CabcO+TX/xqgTiRXBD4F7bB6YCwjXi5evmgrWIVKNZkUj5ds2KzIhaXz41ycKv53gsOe0nnTZsV0y6GvpwJ8lEwiPbi+3KK9z6a8r9+y1DQ95/nT6k7/nbhKZ5k0S8XjtwIUzYN37mB/ngoEXimzb6BnqtD9aXo/leQ73evNvyW4XOHNIIxjLl/RjbTPQ8Vpz+k8TLr7L8YQsVm1aYuvLTyZ38wQ67nXg6u/Ph5M4ibnaL0avhYOvQrOYmYCJeBDcE7rV9YCIENJf1vZX/hngn38yr24BSS1ZT3YEMDdYiWPoNHmZRFR6vNxdktdW/DzPlc+ZZah3lsd4Mnyde693T6MiI12sHLoQJ+44GgBsvlhCsb5z6U5qVwAPxetE/1CSIE8Rr9YFnROsSgvUz7uvWPkvgUaV4uZ+/On5ggA9sxAdmRNiprbngevSNGcE1s60XlJv/jDIoN/VnTPNlqiBeK5iygY54Id74wHZ8YCpOBIcizCGKbDs5ONF9fVOubVT+206/YeOtP5gxZ6zsJDZ9AfFawXyI10Z+20ZctiMuz7bVRJyQlVD/X5805y7C/KC5CFN3ECPXNi6//P5LM0ZcHucHY71oAeK1gmERL8SL7cKN+cBEnIgFJM7Hzfu/zUoInW/rP31bxMuTaD8Rr5DHIjnEa2OB69m/1dN/+Su8icgQC02cD5vLVp9+rVNc1+f9p2+LeHkS7SfiFfJYJId4IV6svDbmAxORIRaaOG+bx9dy+bgc8bIUy/jPOTltyG/e5f/mjY3qtlEYN4e56HDF0X/f4KBm4oBFrm1UzoGNECYrr5DHIjlWXhv7rRvhqlu4xP4z/l37jRm2y2Tb5gs29Js0fvn90jfJ1e8rVJBAvFYwMuKFeLFtuDEfWCFOxEOWEKzjOa2ZL4EH24b8Zs9v9vhA2T6wZpTuxi4hWBeAoZ9CCTzqFK/eBCRKcMJSrACL0BLwUB6wUBaSKoEH4hXapLpcCU5YCnRYhJaAh/KAhbKQVAk8EK/QJtXlSnDCUqDDIrQEPJQHLJSFpErggXiFNqkuV4ITlgIdFqEl4KE8YKEsJFUCD8QrtEl1uRKcsBTosAgtAQ/lAQtlIakSeCBeoU2qy5XghKVAh0VoCXgoD1goC0mVwAPxCm1SXa4EJywFOixCS8BDecBCWUiqBB6IV2iT6nIlOGEp0GERWgIeygMWykJSJfBAvEKbVJcrwQlLgQ6L0BLwUB6wUBaSKoEH4hXapLpcCU5YCnRYhJaAh/KAhbKQVAk8EK/QJtXlSnDCUqDDIrQEPJQHLJSFpErggXiFNqkuV4ITlgIdFqEl4KE8YKEsJFUCD8QrtEl1uRKcsBTosAgtAQ/lAQtlIakSeCBeoU2qy5XghKVAh0VoCXgoD1goC0mVwAPxCm1SXa4EJywFOixCS8BDecBCWUiqBB6IV2iT6nIlOGEp0GERWgIeygMWykJSJfBAvEKbVJcrwQlLgQ6L0BLwUB6wUBaSKoEH4hXapLpcCU5YCnRYhJaAh/KAhbKQVAk86hSvP/5wjh8Y4AP4wJQPdDG7hGAdyse6uRJ4IF5Tzst1Ahw+UK8PzBCvz/c3t9vt2p/jZaAqwfWu3tv7Z1Pvcuza7XbOl8mFVPlYP4NBn1yAeD0ZcKr7BjrBqN5ghO2x/TU+0AWRbLD+fHdvu6NrJevijrs31+lSKvw45z7d+1tX53J0u7d318mYtv18d0ffSdC/7dL0Y4sXSmd5LDS+DMPK6xpHpi6BDx+oywe6YJwL1rIasiumOD+I5SJGnWDFdWW1NVy4ZQTR9DMYY4GCHI8Fhu6HQLwIRnUFI+yNva/xgS5U5oJ1LEBxvo+0XcIKlNTdGbWSa1YImyYZkbL9xGMskc/xWGJsPwbidY0jU5fAhw/U5QNdpMwF61is4rwPtO2nrKL8FqOUyNafvvOS92ZGy8ItxqCjuJ/g4iKZHI9FBu8GQbwIRnUFI+yNva/xgS5Q5oJ1LFZx3gbzsWtS73IM35clV2IiadFWpR1jqXSOx1LjyziI1zWOTF0CHz5Qlw900TgbrIMDFZn3U00fY9ca5TKHN9oV2WALcU4/3Xyf/ZHl8eyBTf+IF8GormCEvbH3NT7QBcuxYC0rJH9UvhecRtTMSio4Wdh12tTxbc12otT1R++jo/Uu1Y8J6Eslx3gsNQfE6xpHpi6BDx+oywe6SFxCsF5KFOaMUwKPmeL14U77vdv3Pwd3/ppzi9fX+Tjt3eFZnXdfa/LnP/85fmCAD+ADa/jAVFSUd1r9yis8wdE3tau98G/F/EpuZ7Yh03/0LJ3NGasf1CQ2Jl4n92Em/5jklzsfnieEqTkK9DUcljEJlPgAPiA+MPpvzjs0qdP/cXP7fqzVuIs79uVmlNwfPc8Zy3Rjky8gXh/udDi788mvyk7u4+vsDt0KrV9BmTJZvZ0aFRTh8u32bt8Wuq/zQVdeyXbxmL4/izafRrwIIIgIPrCmD+Sj0/AkYfJk4UC8/Lu1jHjZAU3buO84b5vF6Y2JlxGaw9m1u4btdmKnO062/Pb7boXWCI+kpY5dXdn8cOWl4mXrCTqfl0+ztSjj9POJEQ/ziBeBa83Axdj43zAqaUksIHHe15Ryv7WoO4tyolG3DfvDI8F3JerBkLjvOO/HSn1uTLxS24btKsi//lLhkdsVkTm5j49Tv6ryEETkdPVlhc3pyivbruvXd+bH6fPjCcSL4IGA4ANr+sBYhIoFJM77ts07r+Ol/QLf1FahyxzNb7YK25Va3Hec92OlPhEvN7LyQrx4N8fBGnzgBX0gJQa+LBaQOC/14rI47/sSgdNVmS9tD29IedwuzmuLYaoO8eq3+zoA/Xai5EfEK9uOldeavzUyNqsWfOA+HxhKgSmZcYhCRGbWdyL6b7i/HI2ImRXZjLHMzILkxsTLvPPqD13M2DaUW5ZVVOaYvWw1NtdSBzaS7RAvgsd9wQN+8FvTBwIVSGTsMfj+vZXZ7ht8J6L5lnr/Hkw+ddUVvgvT8vwR+sS0gqINiVcw701nBPqajsvYBE58oG4f2HQA7SaPeK1gRcSr7sCBcGD/tX1ghbD38CERr4cjne6wgf7zV+f4gQE+gA88wgemw86sb7Kw24X6rRnSefdfp0SnCm39fnuxOWWox+XDfmZMdGYVxGsmqEdWQ7wQbn5xwQce6gNTAWrOwQip04tT9K0ZcvDiYq/H30JvDmGIePX9TE3s9uuI1+3sbm6JeBG4Hhq4HvGbO31sewU4EY3iI+hxvmk+EC//rRld58H14TF3PRaPeE2YY7uXES/EC/HCBx7qAxPhMBarOO+bS7k/LWhPBDbXE+KVPi4fnizU7UQ/ymM+WXk9huNVvSBeBK6HBi5WTdteNT3CfhMRKBarOO+bN++wct+aEYlX/x7MfB3UQPBy37LhB7zjE/G6A96tTREvxAvxwgce6gMTwSgWqzgvzeOyOO8G4hUOejlG24zdZd1ODOvfm0O87iV4Q3vEi8D10MD1iN/c6WPbq7epOCTCs/NfiGsPV2hDEav0NmBXZ0y8cv+7cjNuWtR05NtSiNdt3O5qhXghXogXPvBQH5gRkZLH2gNx6Y7D+23A/sRg+A6r/+aMpq0/Eu+FsV3B+fdmfd0Z87u2CuJ1LbEH1Ee8CFwPDVysmra9anqE/R4Ql7bWBeK1gsUQL8QL8cIHHuoDK8SxtYdEvFawQAnQV7jt7JDwUDSwUBaSgofygIWyKMU3voVTev0cThjaGB7KAxbKQlLwUB6wUBal+AbiFdqkuhwPpZocFspCUvBQHrBQFqX4BuIV2qS6HA+lmhwWykJS8FAesFAWpfgG4hXapLocD6WaHBbKQlLwUB6wUBal+AbiFdqkuhwPpZocFspCUvBQHrBQFqX4BuIV2qS6HA+lmhwWykJS8FAesFAWpfgG4hXapLocD6WaHBbKQlLwUB6wUBal+AbiFdqkuhwPpZocFspCUvBQHrBQFqX4BuIV2qS6HA+lmhwWykJS8FAesFAWpfgG4hXapLocD6WaHBbKQlLwUB6wUBal+AbiFdqkuhwPpZocFspCUvBQHrBQFqX4BuIV2qS6HA+lmhwWykJS8FAesFAWpfgG4hXapLocD6WaHBbKQlLwUB6wUBal+AbiFdqkuhwPpZocFspCUvBQHrBQFqX4BuIV2qS6HA+lmhwWykJS8FAesFAWpfgG4hXapLocD6WaHBbKQlLwUB6wUBal+AbiFdqkuhwPpZocFspCUvBQHrBQFqX4Rp3i9ccfzvEDA3zgeT4QxrrN5xCv0IQl8EC8CGDPC2CwrZdtGOsGuc/3N7fb7dqf42VwvS24uKOvs3tz75+m2ue7e9vt3JspvBy7/qJy5z7d+9vO7d7ene3C9DaZLCFYT05ywQol8EC8CLD1Blhs/zzbjwXSRniOrpUsEahImJq2reDkdO1yfHPv70cVr893d/RClur/8u7eEK8xq1x1DfG6CtdjKjfQCVrPC1qwha34wMg/WXXZFVOcb5qKAOXE5nJ0O1G1ixGvYLyEII71F7RNZ0oI1umZrVNaAg9WXgRbgi0+8HgfGImpsVjF+aapCFS/ZSjbgX6lJiuyLp0Tr5RQpcpG5hhfKiFYx3NaM18CD8SLwPX4wAVTmI5E1lis4nzT1K+uun7kfZas1oK6SfEScUtsQyJeIxa5/hLidT2zu1s00AmuBFd84Lk+MPKkBgLkXChIvl0kXm2bS3vwIliR7dotxK6dFznfTf+JePUoHpFAvB5B8co+EC/+TIA/k1jAB8aeSxGSfhsw8X5K2gZ1Moc3gpVXW8e+SwumgHgFOO7NIF73EryhPeK1QOBiVfPcVc0W+E48m8lj7Y1g6ZafrLb6916pY4dWvAbvyPwxenvcvj1Kn+pqYrr8wXYECPGKgCyRRbwQL1ZeC/jAEg/zgmOUEKwXvN3JoUrgccOBjQ932u/dvv85uPNX7l5t3VQ9e33v9qePXEd9+cdp7w75Aft6uYRA//Of//iBAT6wgA/knsOtlZcQrEtiVgKPG8Xr5KZl5sudD3vX69HX2R36jDeDiJfvK6rvqzz4E/FCuPnlZTkfmPP4Tm4PNp3Y7T+/tWjLwm/QyPWZ3K6cMckSgvWMaS5WpQQezxOvj5PbH84uuyhrMFvxcu7rfOhWVdGKbK+rtqbO6eQOp3MjjtNjhPZEvJYLXIgErMOnL5ELDmZkDm90X+80fFd1ccfUHzLn+sx+C0diXlFRCcE6mtKq2RJ43CheZtswI1AqRGOMrXiNrLxk1daN04uXEbSxEeJriBcBFVFdzgfi5y/Ot0fg9RsH43xTP3tSMC1ecR9xfrzPeIZtvoRgnZ7ZOqUl8LhRvPxWn4ITUfHvwWR3cL54qRAG77Jk5da/V9v3q7hevDKiqTNKpxCv5QIXIgHr9FOopbGwxPmm5uAkof+2jXDb0B+Tj/uwed029H3oXMZSJQTrsfktfa0EHg8TrwE8EZ/BO664ll15mWuy0urfhTlRwuHKC/HiwMECBw4Q4PsE2DzVyaQVFqkQ55tG0R8sp/8QWbcc4z7ifNNndCw/OTlTWEKwNtNZPVkCj+eJl2vfW6l+fbiTZjr4I+JlxKlZ1cXbhub6NZYU6ASk+wIS/OA31wemns1YWOJ80z4Sr2QdJ9/Tu3PyXiy+Huf9nHx9nx/7LCFYj81v6Wsl8LhRvHSrT7b2BprkSTYrKF9XD134y64RuOEWpFy325D708mdEC9El5XW5nxAn/VMKne4wlYP6mS+bcOupIL6uiKTb6HXQx+m3I6VSZcQrDNTW6W4BB43iNcqrB42qECf+1sj9Vhh4AP3+cCcB1ffQ/lvxfBfD+WPxLerqfjbNmRF1Zft2lWXHy/ZpwvfkamQ+Vb5zxKCdX52y18pgQfixW/ziDk+8DQfWD6sPmfEEoL1c+7stl5L4FGleLmfvzp+YIAPFOgDt8XSp7cqIVg//SavGKAEHogXQoaQ4wPl+MCMABpsF2b3/uwWoW4/2u3EXf8HzrZu+E0dtr4/ij9jii9fBfFawcQNdIJVOcEKW2AL6wNTMSF3GCNoN3KooxcsWyf9x85ywMML3M+ff7njTkUwGK7CDOK1gtERrwK3imzwIl23mE3EhPjYe5xvmovA9SJlOgzKRby8GKXFy/YtcUNWYdmFnhmmhiTitYKVES/Ei3ddBfvAREywgiJV43zTPPuNHOGpRRWicNvQbw9K37uukhcvf21imi9/GfFawcSIV8GBi1VX3asusf/Ev1is4nzTPPqjZlkxedFp3mEdL80qym8JhkOKkPkVWbu1mDuOH7arK4d4rWBvxAvxYuVVsA9MxIRYrOJ80zwSL1/Hf/oh4rwvT20PSty4HL2o+Zr1fiJeK9ge8So4cLHyYuU1FRPmHNgI6ujBDBErvw0ow9gVWT9s03YoUj//+q0/vNHXrTiBeK1gfMQL8WLlVbAPzIgJzdbfbtd8u4bfDnSR6DRC1dVRwYq2AbtDHUFd+00dTZ/tOLvdb+4yY261VEG8VrA04lVw4GLlxcprhZgwZ8gSgvWceS5VpwQedf6R8lIW3sA4JThhKZhgEVoCHsoDFspCUiXwQLxCm1SXK8EJS4EOi9AS8FAesFAWkiqBB+IV2qS6XAlOWAp0WISWgIfygIWykFQJPBCv0CbV5UpwwlKgwyK0BDyUByyUhaRK4IF4hTapLleCE5YCHRahJeChPGChLCRVAg/EK7RJdbkSnLAU6LAILQEP5QELZSGpEnggXqFNqsuV4ISlQIdFaAl4KA9YKAtJlcAD8QptUl2uBCcsBTosQkvAQ3nAQllIqgQe1YnX//73v9AKlefgoQ4AC2UhKXgoD1goi1J8ozrxCk1ADgIQgAAEtkgA8dqi1ZgzBCAAgcoJIF6VOwC3DwEIQGCLBBCvLVqNOUMAAhConADiVbkDcPsQgAAEtkgA8dqi1ZgzBCAAgcoJIF6VOwC3DwEIQGCLBBCvLVqNOUMAAhConADiVbkDcPsQgAAEtkgA8dqi1ZgzBCAAgcoJIF6VOwC3DwEIQGCLBDYnXl/ng9vv9+3P6SPJPFfnUeXJQVcozN2PncrHqWO137vD+au/lGt7bXnfYQGJ3NwHU/s6u8OL85jH4sOd/LO0PzjvHrm215YPuK9YkJu7nZJ9VvaHs/NPS67tteV2rHXTX+582Dt7j/F8rr23a+vH492S35Z4NUHn5FrJkgdPH7j+5nN1HlXeD7RyInc/dlpfZ3fSiOQO+45dru215XastdO5uSfm9XE6uPP5pGKea3tteWKsVYpy8w4m0wawwe9/ubbXlgdjrZzJzd1OS+r0gmXY5NpeW27HWjXdxc0Pe7/RhK69t2vrR8Pdmt2UeIm6x6sHmxcIuTqPKr8V9KPb5e4nP46Kfa7tteX5sZa/kpv7YCYfJ7eXiP2h4pVre235YKyVCnLzDqYjAacP1nol1/bacu1x/VRu7sHMAh4iXu0vxrm215YHY5WQCe43nNC193Zt/XC023OIV0YQcwa5HfVjW149P+OsubbXlj/2ju7rLTf3sFcJSt3qs3bxeouz/gAAB9hJREFUEhHvtwxla7nlkuN4bXnIfd1cbu7xrKSeZ+JXpLm215bHY62eN/Egnsu193Zt/Xi8W/OIVxXipb9JiqNc62y5+rc63TPazZljUAfxalegnTHkfY/sYgSMjK9cW/4MG9/aZ27ucX/NO6/Th2s+u1Vpru215fFYq+cRr2VNkHMYO4tcnUeV27HWTOfuJzUnH5j8tVzba8t9fyV85uauc2vfY/jfrPvP08fLBexpFq7ZNm22TztAvo3/9Nx83n/OLff1SvjMzd3OLVfnUeV2rCLSiNfCZhDg/tCB03c4wSxydR5VHgy2YiZ3P8GU2oAdvxd0ubbXlgdjrZzJzT03LbPyejkec1gEdVo/abbKgnLzjF1bnuO+Rnlu7mYuIlJWzPtf+HJtry03YxWRlPkn3nk2c7v23q6t/yAAm9o2lHtulvTdXn0flBt4evIwWSfX9obyB7G/u5vkfVoWg/caelw+2XbDLOb6Rg/ditcN953j1/e/ciI5P+sb3ZagXYH6KSfb3sDI91fCZ/KeAh7RytwE9mTbzfKQX0j0z2fE/vpLy7Zi6ObEq4QHgTlAAAIQgMC6BBCvdfkzOgQgAAEI3EAA8boBGk0gAAEIQGBdAojXuvwZHQIQgAAEbiCAeN0AjSYQgAAEILAuAcRrXf6MDgEIQAACNxBAvG6ARhMIQAACEFiXAOK1Ln9GhwAEIACBGwggXjdAowkEIAABCKxLAPFalz+jQwACEIDADQQQrxug0QQCEIAABNYlgHity5/RIQABCEDgBgKI1w3QaAIBCEAAAusSQLzW5c/oEIAABCBwAwHE6wZoNIEABCAAgXUJIF7r8md0CEAAAhC4gQDidQM0mkAAAhCAwLoEEK91+TM6BCAAAQjcQADxugHaazSJ/tvzvf4X4P39fZzcPijv/gtx81+kOydlJ/fRNLJp5+S/Tz+cv7ru7H8/bsey5Xu3b/5P8n4GT0pEY6busfmv0v08o/r9HKPyoB879a5ewE2uexuk+bU9SFt/3fb5rPTcubb2lf9GXn7UzvG8/D36/3reM43qfZ3dIeATt3sQg8E40TzIboYA4rUZUz16ohIcTCARoQqCRxucTqeTERQJbAd3OOxdH79z4hX01waivo0EkD5jg3NU79G33Pdnx+wLezHpp9bP09a3c7Tltp84LfWEm+EtVZpAenCHXpxS/aXK4v4fmZ8516+zO/lfTOQ++nuI5zLtZy2Kg/GplrEVxK/zwe2zY8Rjjuc/TpEdxqtztVACiFehhrlrWn/84VzqJ+g0CiqBCElFHzT9pykLhClxPQ5mQf1gEmactlyClA1ace2x/J///OdyP2E7O2dzJTvPsL7OMSw3PUXJtt45ujfp5/Rh+7Bp30WqzF+74vPnr87lfoJu5s7VNGpE+Oz8Gttc6X4hsGKRup/IF5N2aAWt/cUi7qPLyzxOZ3c+7PtfxGT171eHXvzUfuFMyW2LAOK1LXvNm21KuKQs+DcRMCSAdEsQCQBx0EiVtYInwcIGK1lgjAmSDUQ2QAWTnZXJCZeUh/9kTBPUuhVnfp65Oab7CceSXNc+CPJyr7IVZvu2ad9Lqsxfu+IzJ1xSHvybO1e7bTi2pTfhZ83Y4T2KHbzv2amlfU5qmDlb3zM+bPtpV7w5sQ1qkimYAOJVsHFuntps8TIBvN8ra0fVQCGxwQuZCTJ9IDZlXRA5Be+65oiXzuPWVZfM+jrxGgbccfFKzdHeu1qrCb6dOGZFP8XUB2HtSgNzUHZD5lrxasze/dKSnKuZg/hCJxrDe29/IelXP5GfNb30vtT2eZd4BVvfYh+xW/jLFOJlbLfhJOK1YeNlpz5bvPxDHa94/EOvAbvdcgmDtQjc4Xw2Bwr89ai/PvilZuzbpK5dV3aveKlIx+Pm5pgrH2nfsdBfDmwfNu37SJX5a1d83iBenkd6ruHYWicsbw+l5PysqxuJVzNuIEJSz67gYiZdPu6nn4oX0O4Xlmy9vgGJDRBAvDZgpKuneLV4dasrHzAGYuPFKAoaEgSa32z9KsZcb67Zcr/1KHfz4U79b+CmzdU3Gja4W7yalU9qnrk55srDefXbWk2xtJFfCiybVNr3MXcMXz/zeYt4dTySc/04mQMWMkcvUPH4VnQiP+urxvfYMupdpDnbcujfY4VC1q7smzlOiFIvsBP1+mmRKJoA4lW0eW6c3C3iZX6z7R9yM3y7lXMyq6z2YrtNlA6+wfZPL3TxNk4cuMygVyavEy+7qjSClZxnbo5tkO23xPamn2DuYXvhq9uj9lrcn3BNlQWdz8vcJF7te605c7VCE04oEi/jZ1ovriNXovv2v1j5RvILVrc1u28OaZzcRyRKrW8aO3eTlHK9J98hn1sjgHhtzWLMFwIvSGBJQeGo/Gs4EOL1GnbkLiCwbQLRqulpN7PUOE+7ATr2BBAvT4JPCEAAAhDYDAHEazOmYqIQgAAEIOAJIF6eBJ8QgAAEILAZAojXZkzFRCEAAQhAwBNAvDwJPiEAAQhAYDMEEK/NmIqJQgACEICAJ4B4eRJ8QgACEIDAZgggXpsxFROFAAQgAAFPAPHyJPiEAAQgAIHNEEC8NmMqJgoBCEAAAp4A4uVJ8AkBCEAAApshgHhtxlRMFAIQgAAEPAHEy5PgEwIQgAAENkMA8dqMqZgoBCAAAQh4Av8PqcMl0xlGqkUAAAAASUVORK5CYII=;" vertex="1" parent="1">
          <mxGeometry x="1.0018237304687432" y="-0.004528808593761369" width="431" height="447" as="geometry" />
        </mxCell>
      </root>
    </mxGraphModel>
  </diagram>
</mxfile>
